<mxfile host="app.diagrams.net" modified="2021-10-15T01:06:31.432Z" agent="5.0 (Windows NT 10.0; Win64; x64) AppleWebKit/537.36 (KHTML, like Gecko) Chrome/94.0.4606.81 Safari/537.36" etag="OQVX7hJgk4gmH5YD4pP4" version="15.5.2" type="github">
  <diagram id="6a731a19-8d31-9384-78a2-239565b7b9f0" name="Page-1">
    <mxGraphModel dx="1673" dy="999" grid="1" gridSize="10" guides="1" tooltips="1" connect="1" arrows="1" fold="1" page="1" pageScale="1" pageWidth="1169" pageHeight="827" background="none" math="0" shadow="0">
      <root>
        <mxCell id="0" />
        <mxCell id="1" parent="0" />
        <mxCell id="1350" value="4. Analysis &amp;amp; Visualization 18%" style="ellipse;whiteSpace=wrap;html=1;shadow=1;fontFamily=Helvetica;fontSize=20;fontColor=#FFFFFF;align=center;strokeWidth=3;fillColor=#1699D3;strokeColor=none;" parent="1" vertex="1">
          <mxGeometry x="240" y="220" width="120" height="120" as="geometry" />
        </mxCell>
        <mxCell id="1355" value="1. Collection 18%" style="ellipse;whiteSpace=wrap;html=1;shadow=1;fontFamily=Helvetica;fontSize=20;fontColor=#FFFFFF;align=center;strokeWidth=3;fillColor=#F08705;strokeColor=none;sketch=0;" parent="1" vertex="1">
          <mxGeometry x="780" y="236.5" width="120" height="120" as="geometry" />
        </mxCell>
        <mxCell id="1356" value="2. Storage 22%" style="ellipse;whiteSpace=wrap;html=1;shadow=1;fontFamily=Helvetica;fontSize=20;fontColor=#FFFFFF;align=center;strokeWidth=3;fillColor=#E85642;strokeColor=none;" parent="1" vertex="1">
          <mxGeometry x="835" y="626.5" width="120" height="120" as="geometry" />
        </mxCell>
        <mxCell id="1359" style="endArrow=none;strokeWidth=6;strokeColor=#1699D3;html=1;shadow=1;" parent="1" source="1515" target="1350" edge="1">
          <mxGeometry relative="1" as="geometry" />
        </mxCell>
        <mxCell id="1363" style="endArrow=none;strokeWidth=6;strokeColor=#736CA8;html=1;shadow=1;" parent="1" source="1515" target="1516" edge="1">
          <mxGeometry relative="1" as="geometry" />
        </mxCell>
        <mxCell id="1365" value="" style="edgeStyle=none;endArrow=none;strokeWidth=6;strokeColor=#F08705;html=1;shadow=1;" parent="1" source="1515" target="1355" edge="1">
          <mxGeometry x="-454" y="156.5" width="100" height="100" as="geometry">
            <mxPoint x="-454" y="256.5" as="sourcePoint" />
            <mxPoint x="-354" y="156.5" as="targetPoint" />
          </mxGeometry>
        </mxCell>
        <mxCell id="1366" value="" style="edgeStyle=none;endArrow=none;strokeWidth=6;strokeColor=#E85642;html=1;shadow=1;" parent="1" source="1515" target="1356" edge="1">
          <mxGeometry x="-454" y="156.5" width="100" height="100" as="geometry">
            <mxPoint x="-454" y="256.5" as="sourcePoint" />
            <mxPoint x="-354" y="156.5" as="targetPoint" />
          </mxGeometry>
        </mxCell>
        <mxCell id="85JPZ8DZQDdEnRkXfdhx-1544" style="rounded=1;orthogonalLoop=1;jettySize=auto;html=1;strokeColor=#6D8764;strokeWidth=6;endArrow=none;fillColor=#6d8764;shadow=1;" parent="1" source="1515" target="85JPZ8DZQDdEnRkXfdhx-1543" edge="1">
          <mxGeometry relative="1" as="geometry" />
        </mxCell>
        <mxCell id="1515" value="AWS Data &amp;amp; Analytics Specialty&amp;nbsp; Certified" style="ellipse;whiteSpace=wrap;html=1;shadow=1;fontFamily=Helvetica;fontSize=30;fontColor=#2F5B7C;align=center;strokeColor=#2F5B7C;strokeWidth=6;fillColor=#FFFFFF;fontStyle=1;gradientColor=none;" parent="1" vertex="1">
          <mxGeometry x="430" y="279" width="270" height="270" as="geometry" />
        </mxCell>
        <mxCell id="1516" value="3. Processing 24%" style="ellipse;whiteSpace=wrap;html=1;shadow=1;fontFamily=Helvetica;fontSize=20;fontColor=#FFFFFF;align=center;strokeWidth=3;fillColor=#736ca8;strokeColor=none;" parent="1" vertex="1">
          <mxGeometry x="245" y="626.5" width="120" height="120" as="geometry" />
        </mxCell>
        <mxCell id="85JPZ8DZQDdEnRkXfdhx-1543" value="&lt;font color=&quot;#ffffff&quot;&gt;5. Security 18%&lt;/font&gt;" style="ellipse;whiteSpace=wrap;html=1;shadow=1;fontFamily=Helvetica;fontSize=20;align=center;strokeWidth=3;fillColor=#6d8764;strokeColor=#6D8764;fontColor=#ffffff;" parent="1" vertex="1">
          <mxGeometry x="510" y="40" width="120" height="120" as="geometry" />
        </mxCell>
        <mxCell id="85JPZ8DZQDdEnRkXfdhx-1546" style="edgeStyle=none;rounded=0;orthogonalLoop=1;jettySize=auto;html=1;fontColor=#FFFFFF;strokeColor=#FFE6CC;shadow=1;dashed=1;endArrow=none;endFill=0;" parent="1" source="85JPZ8DZQDdEnRkXfdhx-1545" target="1355" edge="1">
          <mxGeometry relative="1" as="geometry" />
        </mxCell>
        <mxCell id="85JPZ8DZQDdEnRkXfdhx-1545" value="&lt;font color=&quot;#000000&quot;&gt;1.1 Determine the operational characteristics of the collection system&lt;br&gt;1.2 Select a collection system that handles the frequency, volume, and source o data&lt;br&gt;1.3 Select a collection system that adresses the key properties o data, such as order, format and compression&lt;br&gt;&lt;/font&gt;" style="shape=card;whiteSpace=wrap;html=1;fontColor=#FFFFFF;strokeColor=#FF9933;collapsible=1;size=20;container=0;comic=0;treeFolding=1;align=left;horizontal=1;labelPosition=center;verticalLabelPosition=middle;verticalAlign=middle;labelBackgroundColor=none;fillColor=#FFF2CC;rounded=0;sketch=0;shadow=1;" parent="1" vertex="1">
          <mxGeometry x="835" y="31.5" width="220" height="170" as="geometry" />
        </mxCell>
        <mxCell id="_RwUKp7nMh0_ZlNOoDBT-1517" style="rounded=0;orthogonalLoop=1;jettySize=auto;html=1;dashed=1;endArrow=none;endFill=0;shadow=1;strokeColor=#EA6B66;" edge="1" parent="1" source="_RwUKp7nMh0_ZlNOoDBT-1516" target="1356">
          <mxGeometry relative="1" as="geometry" />
        </mxCell>
        <mxCell id="_RwUKp7nMh0_ZlNOoDBT-1516" value="&lt;font color=&quot;#000000&quot;&gt;2.1 Determine the operational caracteristics of a storage solution for analytics&lt;br&gt;2.2 Determine data access and retrieval patterns&lt;br&gt;2.3 Select an appropriate data layout, schema, structure, and format&lt;br&gt;2.4 Define a data lifecycle based on usage patterns and business requirements&lt;br&gt;2.5 Determine an appropriate system for cataloging data and managing metadata&lt;br&gt;&lt;/font&gt;" style="shape=card;whiteSpace=wrap;html=1;strokeColor=#b85450;collapsible=1;size=20;container=0;comic=0;treeFolding=1;align=left;horizontal=1;labelPosition=center;verticalLabelPosition=middle;verticalAlign=middle;labelBackgroundColor=none;fillColor=#f8cecc;rounded=0;sketch=0;shadow=1;" vertex="1" parent="1">
          <mxGeometry x="775" y="390" width="280" height="190" as="geometry" />
        </mxCell>
        <mxCell id="_RwUKp7nMh0_ZlNOoDBT-1520" style="edgeStyle=none;rounded=0;orthogonalLoop=1;jettySize=auto;html=1;shadow=1;dashed=1;endArrow=none;endFill=0;strokeColor=#9673a6;fillColor=#e1d5e7;" edge="1" parent="1" source="_RwUKp7nMh0_ZlNOoDBT-1519" target="1516">
          <mxGeometry relative="1" as="geometry" />
        </mxCell>
        <mxCell id="_RwUKp7nMh0_ZlNOoDBT-1519" value="&lt;font color=&quot;#000000&quot;&gt;3.1 Determine appropriate data processing solution requirements&lt;br&gt;3.2 Design a solution or transforming and preparing data for analysis&lt;br&gt;3.3 Automate and operationalize a data processing solution&lt;br&gt;&lt;/font&gt;" style="shape=card;whiteSpace=wrap;html=1;strokeColor=#B5739D;collapsible=1;size=20;container=0;comic=0;treeFolding=1;align=left;horizontal=1;labelPosition=center;verticalLabelPosition=middle;verticalAlign=middle;labelBackgroundColor=none;fillColor=#e1d5e7;rounded=0;sketch=0;shadow=1;" vertex="1" parent="1">
          <mxGeometry x="435" y="650" width="280" height="166.5" as="geometry" />
        </mxCell>
        <mxCell id="_RwUKp7nMh0_ZlNOoDBT-1523" style="edgeStyle=none;rounded=0;orthogonalLoop=1;jettySize=auto;html=1;shadow=1;dashed=1;endArrow=none;endFill=0;strokeColor=#6c8ebf;fillColor=#dae8fc;" edge="1" parent="1" source="_RwUKp7nMh0_ZlNOoDBT-1522" target="1350">
          <mxGeometry relative="1" as="geometry" />
        </mxCell>
        <mxCell id="_RwUKp7nMh0_ZlNOoDBT-1522" value="&lt;font color=&quot;#000000&quot;&gt;4.1 Determine the operational characteristics of an analysis and visualization solution&lt;br&gt;4.2 Selet the appropriate data analysis solution for a given scenario&lt;br&gt;4.3 Select te appropriate data visualization solution for a given scenario&lt;br&gt;&lt;/font&gt;" style="shape=card;whiteSpace=wrap;html=1;strokeColor=#3333FF;collapsible=1;size=20;container=0;comic=0;treeFolding=1;align=left;horizontal=1;labelPosition=center;verticalLabelPosition=middle;verticalAlign=middle;labelBackgroundColor=none;fillColor=#dae8fc;rounded=0;sketch=0;shadow=1;" vertex="1" parent="1">
          <mxGeometry x="80" y="382.5" width="280" height="166.5" as="geometry" />
        </mxCell>
        <mxCell id="_RwUKp7nMh0_ZlNOoDBT-1525" style="edgeStyle=none;rounded=0;orthogonalLoop=1;jettySize=auto;html=1;shadow=1;dashed=1;endArrow=none;endFill=0;strokeColor=#82b366;fillColor=#d5e8d4;" edge="1" parent="1" source="_RwUKp7nMh0_ZlNOoDBT-1524" target="85JPZ8DZQDdEnRkXfdhx-1543">
          <mxGeometry relative="1" as="geometry" />
        </mxCell>
        <mxCell id="_RwUKp7nMh0_ZlNOoDBT-1524" value="&lt;font color=&quot;#000000&quot;&gt;5.1 Select appropriate authentication and authorization mechanisms&lt;br&gt;5.2 Apply data protection and encryption techniques&lt;br&gt;5.3 Apply data governance and compliance controls&lt;br&gt;&lt;/font&gt;" style="shape=card;whiteSpace=wrap;html=1;strokeColor=#82b366;collapsible=1;size=20;container=0;comic=0;treeFolding=1;align=left;horizontal=1;labelPosition=center;verticalLabelPosition=middle;verticalAlign=middle;labelBackgroundColor=none;fillColor=#d5e8d4;rounded=0;sketch=0;shadow=1;" vertex="1" parent="1">
          <mxGeometry x="190" y="16.75" width="280" height="166.5" as="geometry" />
        </mxCell>
      </root>
    </mxGraphModel>
  </diagram>
</mxfile>
